# Blender v2.93.1 OBJ File: ''
# www.blender.org
mtllib cube.mtl
o Cube_Cube.001
v -1.000000 -1.000000 1.000000
v -1.000000 1.000000 1.000000
v -1.000000 -1.000000 -1.000000
v -1.000000 1.000000 -1.000000
v 1.000000 -1.000000 1.000000
v 1.000000 1.000000 1.000000
v 1.000000 -1.000000 -1.000000
v 1.000000 1.000000 -1.000000
vt 0.000000 1.000000
vt 1.000000 0.000000
vt 1.000000 1.000000
vt 0.000000 0.000000
vt 1.000000 0.000000
vt 0.000000 0.000000
vt 0.000000 0.000000
vt 0.000000 1.000000
vt 1.000000 1.000000
vt 0.000000 0.000000
vt 1.000000 0.000000
vt 0.000000 1.000000
vt 1.000000 0.000000
vt 1.000000 1.000000
vt 1.000000 1.000000
vt 0.000000 1.000000
vn 0.0000 1.0000 0.0000
vn 0.0000 0.0000 -1.0000
vn 1.0000 0.0000 0.0000
vn 0.0000 0.0000 1.0000
vn -1.0000 0.0000 0.0000
vn 0.0000 -1.0000 0.0000
g Cube_Cube.001_Material.001
usemtl Material.001
s off
f 4/1/1 6/2/1 8/3/1
f 4/1/1 2/4/1 6/2/1
g Cube_Cube.001_Material.002
usemtl Material.002
f 4/1/2 7/5/2 3/6/2
f 4/1/2 8/3/2 7/5/2
g Cube_Cube.001_Material.003
usemtl Material.003
f 8/3/3 5/7/3 7/5/3
f 8/3/3 6/8/3 5/7/3
g Cube_Cube.001_Material.004
usemtl Material.004
f 6/9/4 1/10/4 5/11/4
f 6/9/4 2/12/4 1/10/4
g Cube_Cube.001_Material.005
usemtl Material.005
f 2/12/5 3/13/5 1/10/5
f 2/12/5 4/14/5 3/13/5
g Cube_Cube.001_Material.006
usemtl Material.006
f 7/15/6 1/10/6 3/16/6
f 7/15/6 5/11/6 1/10/6
