# 3ds Max Wavefront OBJ Exporter v0.97b - (c)2007 guruware
# File Created: 21.05.2021 10:29:28

mtllib planet.mtl

#
# object Sphere002
#

v  0.0000 10.0000 -0.0000
v  -0.0000 8.6603 -5.0000
v  -2.5000 8.6603 -4.3301
v  -4.3301 8.6603 -2.5000
v  -5.0000 8.6603 -0.0000
v  -4.3301 8.6603 2.5000
v  -2.5000 8.6603 4.3301
v  -0.0000 8.6603 5.0000
v  2.5000 8.6603 4.3301
v  4.3301 8.6603 2.5000
v  5.0000 8.6603 0.0000
v  4.3301 8.6603 -2.5000
v  2.5000 8.6603 -4.3301
v  -0.0000 7.7452 -5.9151
v  -2.9575 7.7452 -5.1226
v  -5.1226 7.7452 -2.9575
v  -5.9151 7.7452 -0.0000
v  -5.1226 7.7452 2.9575
v  -2.9575 7.7452 5.1226
v  -0.0000 7.7452 5.9151
v  2.9575 7.7452 5.1226
v  5.1226 7.7452 2.9575
v  5.9151 7.7452 0.0000
v  5.1226 7.7452 -2.9575
v  2.9575 7.7452 -5.1226
v  -5.0000 -0.0000 -8.6603
v  -4.3301 5.0000 -7.5000
v  -0.0000 5.0000 -8.6603
v  -0.0000 -0.0000 -10.0000
v  -8.6603 -0.0000 -5.0000
v  -7.5000 5.0000 -4.3301
v  -10.0000 -0.0000 -0.0000
v  -8.6603 5.0000 -0.0000
v  -8.6603 -0.0000 5.0000
v  -7.5000 5.0000 4.3301
v  -5.0000 -0.0000 8.6603
v  -4.3301 5.0000 7.5000
v  -0.0000 -0.0000 10.0000
v  -0.0000 5.0000 8.6603
v  5.0000 -0.0000 8.6603
v  4.3301 5.0000 7.5000
v  8.6603 -0.0000 5.0000
v  7.5000 5.0000 4.3301
v  10.0000 -0.0000 0.0000
v  8.6603 5.0000 0.0000
v  8.6603 -0.0000 -5.0000
v  7.5000 5.0000 -4.3301
v  5.0000 -0.0000 -8.6602
v  4.3301 5.0000 -7.5000
v  -4.3301 -5.0000 -7.5000
v  -0.0000 -5.0000 -8.6603
v  -7.5000 -5.0000 -4.3301
v  -8.6603 -5.0000 -0.0000
v  -7.5000 -5.0000 4.3301
v  -4.3301 -5.0000 7.5000
v  -0.0000 -5.0000 8.6603
v  4.3301 -5.0000 7.5000
v  7.5000 -5.0000 4.3301
v  8.6603 -5.0000 0.0000
v  7.5000 -5.0000 -4.3301
v  4.3301 -5.0000 -7.5000
v  -0.0000 -7.7452 -5.9151
v  -2.9575 -7.7452 -5.1226
v  -5.1226 -7.7452 -2.9575
v  -5.9151 -7.7452 -0.0000
v  -5.1226 -7.7452 2.9575
v  -2.9575 -7.7452 5.1226
v  -0.0000 -7.7452 5.9151
v  2.9575 -7.7452 5.1226
v  5.1226 -7.7452 2.9575
v  5.9151 -7.7452 0.0000
v  5.1226 -7.7452 -2.9575
v  2.9575 -7.7452 -5.1226
v  0.0000 -10.0000 -0.0000
v  -2.5000 -8.6603 -4.3301
v  -0.0000 -8.6603 -5.0000
v  -4.3301 -8.6603 -2.5000
v  -5.0000 -8.6603 -0.0000
v  -4.3301 -8.6603 2.5000
v  -2.5000 -8.6603 4.3301
v  -0.0000 -8.6603 5.0000
v  2.5000 -8.6603 4.3301
v  4.3301 -8.6603 2.5000
v  5.0000 -8.6603 0.0000
v  4.3301 -8.6603 -2.5000
v  2.5000 -8.6603 -4.3301
# 86 vertices

vn 0.0000 1.0000 -0.0000
vn 0.0000 0.8474 -0.5309
vn -0.2654 0.8474 -0.4598
vn -0.4598 0.8474 -0.2654
vn -0.5309 0.8474 -0.0000
vn -0.4598 0.8474 0.2654
vn -0.2655 0.8474 0.4598
vn -0.0000 0.8474 0.5309
vn 0.2654 0.8474 0.4598
vn 0.4598 0.8474 0.2655
vn 0.5309 0.8474 0.0000
vn 0.4598 0.8474 -0.2654
vn 0.2655 0.8474 -0.4598
vn 0.0000 0.7071 -0.7071
vn -0.3536 0.7071 -0.6124
vn -0.6124 0.7071 -0.3536
vn -0.7071 0.7071 -0.0000
vn -0.6124 0.7071 0.3536
vn -0.3536 0.7071 0.6124
vn -0.0000 0.7071 0.7071
vn 0.3536 0.7071 0.6124
vn 0.6124 0.7071 0.3536
vn 0.7071 0.7071 0.0000
vn 0.6124 0.7071 -0.3536
vn 0.3536 0.7071 -0.6124
vn -0.5000 -0.0000 -0.8660
vn -0.4380 0.4823 -0.7586
vn 0.0000 0.4823 -0.8760
vn 0.0000 -0.0000 -1.0000
vn -0.8660 -0.0000 -0.5000
vn -0.7586 0.4823 -0.4380
vn -1.0000 -0.0000 -0.0000
vn -0.8760 0.4823 -0.0000
vn -0.8660 -0.0000 0.5000
vn -0.7586 0.4823 0.4380
vn -0.5000 -0.0000 0.8660
vn -0.4380 0.4823 0.7586
vn -0.0000 -0.0000 1.0000
vn -0.0000 0.4823 0.8760
vn 0.5000 -0.0000 0.8660
vn 0.4380 0.4823 0.7586
vn 0.8660 -0.0000 0.5000
vn 0.7586 0.4823 0.4380
vn 1.0000 -0.0000 0.0000
vn 0.8760 0.4823 0.0000
vn 0.8660 -0.0000 -0.5000
vn 0.7586 0.4823 -0.4380
vn 0.5000 -0.0000 -0.8660
vn 0.4380 0.4823 -0.7586
vn -0.4380 -0.4823 -0.7586
vn 0.0000 -0.4823 -0.8760
vn -0.7586 -0.4823 -0.4380
vn -0.8760 -0.4823 -0.0000
vn -0.7586 -0.4823 0.4380
vn -0.4380 -0.4823 0.7586
vn -0.0000 -0.4823 0.8760
vn 0.4380 -0.4823 0.7586
vn 0.7586 -0.4823 0.4380
vn 0.8760 -0.4823 0.0000
vn 0.7586 -0.4823 -0.4380
vn 0.4380 -0.4823 -0.7586
vn 0.0000 -0.7071 -0.7071
vn -0.3536 -0.7071 -0.6124
vn -0.6124 -0.7071 -0.3536
vn -0.7071 -0.7071 -0.0000
vn -0.6124 -0.7071 0.3536
vn -0.3536 -0.7071 0.6124
vn -0.0000 -0.7071 0.7071
vn 0.3536 -0.7071 0.6124
vn 0.6124 -0.7071 0.3536
vn 0.7071 -0.7071 0.0000
vn 0.6124 -0.7071 -0.3536
vn 0.3536 -0.7071 -0.6124
vn -0.0000 -1.0000 -0.0000
vn -0.2654 -0.8474 -0.4598
vn 0.0000 -0.8474 -0.5309
vn -0.4598 -0.8474 -0.2654
vn -0.5309 -0.8474 -0.0000
vn -0.4598 -0.8474 0.2654
vn -0.2655 -0.8474 0.4598
vn -0.0000 -0.8474 0.5309
vn 0.2654 -0.8474 0.4598
vn 0.4598 -0.8474 0.2655
vn 0.5309 -0.8474 0.0000
vn 0.4598 -0.8474 -0.2654
vn 0.2655 -0.8474 -0.4598
# 86 vertex normals

vt 0.0084 0.0124 1.0000
vt 0.0084 0.0229 0.9330
vt 0.0048 0.0215 0.9330
vt 0.0023 0.0177 0.9330
vt 0.0013 0.0124 0.9330
vt 0.0023 0.0072 0.9330
vt 0.0048 0.0033 0.9330
vt 0.0084 0.0019 0.9330
vt 0.0119 0.0033 0.9330
vt 0.0145 0.0072 0.9330
vt 0.0155 0.0124 0.9330
vt 0.0145 0.0177 0.9330
vt 0.0119 0.0215 0.9330
vt 0.0084 0.0248 0.8873
vt 0.0042 0.0232 0.8873
vt 0.0011 0.0186 0.8873
vt 0.0000 0.0124 0.8873
vt 0.0011 0.0062 0.8873
vt 0.0042 0.0017 0.8873
vt 0.0084 0.0000 0.8873
vt 0.0126 0.0017 0.8873
vt 0.0157 0.0062 0.8873
vt 0.0168 0.0124 0.8873
vt 0.0157 0.0186 0.8873
vt 0.0126 0.0232 0.8873
vt 0.0833 0.5000 1.0000
vt 0.0833 0.8228 0.8660
vt 0.0000 0.8228 0.8660
vt 0.0000 0.5000 1.0000
vt 0.1667 0.5000 1.0000
vt 0.1667 0.8228 0.8660
vt 0.2500 0.5000 1.0000
vt 0.2500 0.8228 0.8660
vt 0.3333 0.5000 1.0000
vt 0.3333 0.8228 0.8660
vt 0.4167 0.5000 1.0000
vt 0.4167 0.8228 0.8660
vt 0.5000 0.5000 1.0000
vt 0.5000 0.8228 0.8660
vt 0.5833 0.5000 1.0000
vt 0.5833 0.8228 0.8660
vt 0.6667 0.5000 1.0000
vt 0.6667 0.8228 0.8660
vt 0.7500 0.5000 1.0000
vt 0.7500 0.8228 0.8660
vt 0.8333 0.5000 1.0000
vt 0.8333 0.8228 0.8660
vt 0.9167 0.5000 1.0000
vt 0.9167 0.8228 0.8660
vt 1.0000 0.5000 1.0000
vt 1.0000 0.8228 0.8660
vt 0.0833 0.1772 0.8660
vt 0.0000 0.1772 0.8660
vt 0.1667 0.1772 0.8660
vt 0.2500 0.1772 0.8660
vt 0.3333 0.1772 0.8660
vt 0.4167 0.1772 0.8660
vt 0.5000 0.1772 0.8660
vt 0.5833 0.1772 0.8660
vt 0.6667 0.1772 0.8660
vt 0.7500 0.1772 0.8660
vt 0.8333 0.1772 0.8660
vt 0.9167 0.1772 0.8660
vt 1.0000 0.1772 0.8660
vt 0.0000 0.0000 0.5915
vt 0.0833 0.0000 0.5915
vt 0.1667 0.0000 0.5915
vt 0.2500 0.0000 0.5915
vt 0.3333 0.0000 0.5915
vt 0.4167 0.0000 0.5915
vt 0.5000 0.0000 0.5915
vt 0.5833 0.0000 0.5915
vt 0.6667 0.0000 0.5915
vt 0.7500 0.0000 0.5915
vt 0.8333 0.0000 0.5915
vt 0.9167 0.0000 0.5915
vt 1.0000 0.0000 0.5915
vt 0.0084 0.0124 0.0000
vt 0.0048 0.0215 0.0670
vt 0.0084 0.0229 0.0670
vt 0.0023 0.0177 0.0670
vt 0.0013 0.0124 0.0670
vt 0.0023 0.0072 0.0670
vt 0.0048 0.0033 0.0670
vt 0.0084 0.0019 0.0670
vt 0.0119 0.0033 0.0670
vt 0.0145 0.0072 0.0670
vt 0.0155 0.0124 0.0670
vt 0.0145 0.0177 0.0670
vt 0.0119 0.0215 0.0670
vt 0.0833 1.0000 0.5915
vt 0.0000 1.0000 0.5915
vt 0.1667 1.0000 0.5915
vt 0.2500 1.0000 0.5915
vt 0.3333 1.0000 0.5915
vt 0.4167 1.0000 0.5915
vt 0.5000 1.0000 0.5915
vt 0.5833 1.0000 0.5915
vt 0.6667 1.0000 0.5915
vt 0.7500 1.0000 0.5915
vt 0.8333 1.0000 0.5915
vt 0.9167 1.0000 0.5915
vt 1.0000 1.0000 0.5915
vt 0.0042 0.0232 0.1127
vt 0.0084 0.0248 0.1127
vt 0.0011 0.0186 0.1127
vt 0.0000 0.0124 0.1127
vt 0.0011 0.0062 0.1127
vt 0.0042 0.0017 0.1127
vt 0.0084 0.0000 0.1127
vt 0.0126 0.0017 0.1127
vt 0.0157 0.0062 0.1127
vt 0.0168 0.0124 0.1127
vt 0.0157 0.0186 0.1127
vt 0.0126 0.0232 0.1127
# 115 texture coords

o Sphere002
g Sphere002
usemtl 01___Default
f 1/1/1 2/2/2 3/3/3 
f 1/1/1 3/3/3 4/4/4 
f 1/1/1 4/4/4 5/5/5 
f 1/1/1 5/5/5 6/6/6 
f 1/1/1 6/6/6 7/7/7 
f 1/1/1 7/7/7 8/8/8 
f 1/1/1 8/8/8 9/9/9 
f 1/1/1 9/9/9 10/10/10 
f 1/1/1 10/10/10 11/11/11 
f 1/1/1 11/11/11 12/12/12 
f 1/1/1 12/12/12 13/13/13 
f 1/1/1 13/13/13 2/2/2 
f 14/14/14 15/15/15 3/3/3 
f 3/3/3 2/2/2 14/14/14 
f 15/15/15 16/16/16 4/4/4 
f 4/4/4 3/3/3 15/15/15 
f 16/16/16 17/17/17 5/5/5 
f 5/5/5 4/4/4 16/16/16 
f 17/17/17 18/18/18 6/6/6 
f 6/6/6 5/5/5 17/17/17 
f 18/18/18 19/19/19 7/7/7 
f 7/7/7 6/6/6 18/18/18 
f 19/19/19 20/20/20 8/8/8 
f 8/8/8 7/7/7 19/19/19 
f 20/20/20 21/21/21 9/9/9 
f 9/9/9 8/8/8 20/20/20 
f 21/21/21 22/22/22 10/10/10 
f 10/10/10 9/9/9 21/21/21 
f 22/22/22 23/23/23 11/11/11 
f 11/11/11 10/10/10 22/22/22 
f 23/23/23 24/24/24 12/12/12 
f 12/12/12 11/11/11 23/23/23 
f 24/24/24 25/25/25 13/13/13 
f 13/13/13 12/12/12 24/24/24 
f 25/25/25 14/14/14 2/2/2 
f 2/2/2 13/13/13 25/25/25 
f 26/26/26 27/27/27 28/28/28 
f 28/28/28 29/29/29 26/26/26 
f 30/30/30 31/31/31 27/27/27 
f 27/27/27 26/26/26 30/30/30 
f 32/32/32 33/33/33 31/31/31 
f 31/31/31 30/30/30 32/32/32 
f 34/34/34 35/35/35 33/33/33 
f 33/33/33 32/32/32 34/34/34 
f 36/36/36 37/37/37 35/35/35 
f 35/35/35 34/34/34 36/36/36 
f 38/38/38 39/39/39 37/37/37 
f 37/37/37 36/36/36 38/38/38 
f 40/40/40 41/41/41 39/39/39 
f 39/39/39 38/38/38 40/40/40 
f 42/42/42 43/43/43 41/41/41 
f 41/41/41 40/40/40 42/42/42 
f 44/44/44 45/45/45 43/43/43 
f 43/43/43 42/42/42 44/44/44 
f 46/46/46 47/47/47 45/45/45 
f 45/45/45 44/44/44 46/46/46 
f 48/48/48 49/49/49 47/47/47 
f 47/47/47 46/46/46 48/48/48 
f 29/50/29 28/51/28 49/49/49 
f 49/49/49 48/48/48 29/50/29 
f 50/52/50 26/26/26 29/29/29 
f 29/29/29 51/53/51 50/52/50 
f 52/54/52 30/30/30 26/26/26 
f 26/26/26 50/52/50 52/54/52 
f 53/55/53 32/32/32 30/30/30 
f 30/30/30 52/54/52 53/55/53 
f 54/56/54 34/34/34 32/32/32 
f 32/32/32 53/55/53 54/56/54 
f 55/57/55 36/36/36 34/34/34 
f 34/34/34 54/56/54 55/57/55 
f 56/58/56 38/38/38 36/36/36 
f 36/36/36 55/57/55 56/58/56 
f 57/59/57 40/40/40 38/38/38 
f 38/38/38 56/58/56 57/59/57 
f 58/60/58 42/42/42 40/40/40 
f 40/40/40 57/59/57 58/60/58 
f 59/61/59 44/44/44 42/42/42 
f 42/42/42 58/60/58 59/61/59 
f 60/62/60 46/46/46 44/44/44 
f 44/44/44 59/61/59 60/62/60 
f 61/63/61 48/48/48 46/46/46 
f 46/46/46 60/62/60 61/63/61 
f 51/64/51 29/50/29 48/48/48 
f 48/48/48 61/63/61 51/64/51 
f 62/65/62 63/66/63 50/52/50 
f 50/52/50 51/53/51 62/65/62 
f 63/66/63 64/67/64 52/54/52 
f 52/54/52 50/52/50 63/66/63 
f 64/67/64 65/68/65 53/55/53 
f 53/55/53 52/54/52 64/67/64 
f 65/68/65 66/69/66 54/56/54 
f 54/56/54 53/55/53 65/68/65 
f 66/69/66 67/70/67 55/57/55 
f 55/57/55 54/56/54 66/69/66 
f 67/70/67 68/71/68 56/58/56 
f 56/58/56 55/57/55 67/70/67 
f 68/71/68 69/72/69 57/59/57 
f 57/59/57 56/58/56 68/71/68 
f 69/72/69 70/73/70 58/60/58 
f 58/60/58 57/59/57 69/72/69 
f 70/73/70 71/74/71 59/61/59 
f 59/61/59 58/60/58 70/73/70 
f 71/74/71 72/75/72 60/62/60 
f 60/62/60 59/61/59 71/74/71 
f 72/75/72 73/76/73 61/63/61 
f 61/63/61 60/62/60 72/75/72 
f 73/76/73 62/77/62 51/64/51 
f 51/64/51 61/63/61 73/76/73 
f 74/78/74 75/79/75 76/80/76 
f 74/78/74 77/81/77 75/79/75 
f 74/78/74 78/82/78 77/81/77 
f 74/78/74 79/83/79 78/82/78 
f 74/78/74 80/84/80 79/83/79 
f 74/78/74 81/85/81 80/84/80 
f 74/78/74 82/86/82 81/85/81 
f 74/78/74 83/87/83 82/86/82 
f 74/78/74 84/88/84 83/87/83 
f 74/78/74 85/89/85 84/88/84 
f 74/78/74 86/90/86 85/89/85 
f 74/78/74 76/80/76 86/90/86 
f 28/28/28 27/27/27 15/91/15 
f 15/91/15 14/92/14 28/28/28 
f 27/27/27 31/31/31 16/93/16 
f 16/93/16 15/91/15 27/27/27 
f 31/31/31 33/33/33 17/94/17 
f 17/94/17 16/93/16 31/31/31 
f 33/33/33 35/35/35 18/95/18 
f 18/95/18 17/94/17 33/33/33 
f 35/35/35 37/37/37 19/96/19 
f 19/96/19 18/95/18 35/35/35 
f 37/37/37 39/39/39 20/97/20 
f 20/97/20 19/96/19 37/37/37 
f 39/39/39 41/41/41 21/98/21 
f 21/98/21 20/97/20 39/39/39 
f 41/41/41 43/43/43 22/99/22 
f 22/99/22 21/98/21 41/41/41 
f 43/43/43 45/45/45 23/100/23 
f 23/100/23 22/99/22 43/43/43 
f 45/45/45 47/47/47 24/101/24 
f 24/101/24 23/100/23 45/45/45 
f 47/47/47 49/49/49 25/102/25 
f 25/102/25 24/101/24 47/47/47 
f 49/49/49 28/51/28 14/103/14 
f 14/103/14 25/102/25 49/49/49 
f 76/80/76 75/79/75 63/104/63 
f 63/104/63 62/105/62 76/80/76 
f 75/79/75 77/81/77 64/106/64 
f 64/106/64 63/104/63 75/79/75 
f 77/81/77 78/82/78 65/107/65 
f 65/107/65 64/106/64 77/81/77 
f 78/82/78 79/83/79 66/108/66 
f 66/108/66 65/107/65 78/82/78 
f 79/83/79 80/84/80 67/109/67 
f 67/109/67 66/108/66 79/83/79 
f 80/84/80 81/85/81 68/110/68 
f 68/110/68 67/109/67 80/84/80 
f 81/85/81 82/86/82 69/111/69 
f 69/111/69 68/110/68 81/85/81 
f 82/86/82 83/87/83 70/112/70 
f 70/112/70 69/111/69 82/86/82 
f 83/87/83 84/88/84 71/113/71 
f 71/113/71 70/112/70 83/87/83 
f 84/88/84 85/89/85 72/114/72 
f 72/114/72 71/113/71 84/88/84 
f 85/89/85 86/90/86 73/115/73 
f 73/115/73 72/114/72 85/89/85 
f 86/90/86 76/80/76 62/105/62 
f 62/105/62 73/115/73 86/90/86 
# 168 faces

