# Blender 4.0.2
# www.blender.org
mtllib text_B.mtl
g text_B_text_B
v 0.127631 -0.260645 0.000000
v 0.361631 -0.260645 0.000000
v 0.402157 -0.258668 0.000000
v 0.438339 -0.252997 0.000000
v 0.470334 -0.244020 0.000000
v 0.498298 -0.232127 0.000000
v 0.522386 -0.217705 0.000000
v 0.542756 -0.201145 0.000000
v 0.559563 -0.182835 0.000000
v 0.572964 -0.163164 0.000000
v 0.583115 -0.142520 0.000000
v 0.590173 -0.121293 0.000000
v 0.594293 -0.099872 0.000000
v 0.595631 -0.078645 0.000000
v 0.594352 -0.056179 0.000000
v 0.590566 -0.034835 0.000000
v 0.584350 -0.014692 0.000000
v 0.575779 0.004170 0.000000
v 0.564931 0.021670 0.000000
v 0.551881 0.037730 0.000000
v 0.536706 0.052269 0.000000
v 0.519483 0.065207 0.000000
v 0.500287 0.076464 0.000000
v 0.479196 0.085961 0.000000
v 0.456285 0.093618 0.000000
v 0.431631 0.099355 0.000000
v 0.431631 0.101355 0.000000
v 0.448592 0.108964 0.000000
v 0.463988 0.117308 0.000000
v 0.477834 0.126417 0.000000
v 0.490150 0.136318 0.000000
v 0.500951 0.147038 0.000000
v 0.510256 0.158605 0.000000
v 0.518082 0.171047 -0.000000
v 0.524446 0.184392 -0.000000
v 0.529365 0.198667 -0.000000
v 0.532858 0.213901 -0.000000
v 0.534941 0.230121 -0.000000
v 0.535631 0.247355 -0.000000
v 0.534306 0.268844 -0.000000
v 0.530284 0.290105 -0.000000
v 0.523490 0.310824 -0.000000
v 0.513853 0.330688 -0.000000
v 0.501299 0.349386 -0.000000
v 0.485756 0.366605 -0.000000
v 0.467150 0.382032 -0.000000
v 0.445409 0.395355 -0.000000
v 0.420459 0.406261 -0.000000
v 0.392228 0.414438 -0.000000
v 0.360643 0.419573 -0.000000
v 0.325631 0.421355 -0.000000
v 0.127631 0.421355 -0.000000
v 0.225631 0.333355 -0.000000
v 0.315631 0.333355 -0.000000
v 0.336879 0.332460 -0.000000
v 0.355696 0.329859 -0.000000
v 0.372194 0.325683 -0.000000
v 0.386483 0.320058 -0.000000
v 0.398675 0.313115 -0.000000
v 0.408881 0.304980 -0.000000
v 0.417212 0.295782 -0.000000
v 0.423779 0.285651 -0.000000
v 0.428694 0.274714 -0.000000
v 0.432066 0.263100 -0.000000
v 0.434008 0.250937 -0.000000
v 0.434631 0.238355 -0.000000
v 0.433650 0.220875 -0.000000
v 0.430700 0.204933 -0.000000
v 0.425772 0.190527 -0.000000
v 0.418853 0.177651 -0.000000
v 0.409935 0.166303 0.000000
v 0.399006 0.156480 0.000000
v 0.386056 0.148177 0.000000
v 0.371076 0.141392 0.000000
v 0.354053 0.136120 0.000000
v 0.334978 0.132359 0.000000
v 0.313841 0.130105 0.000000
v 0.290631 0.129355 0.000000
v 0.225631 0.129355 0.000000
v 0.225631 0.041355 0.000000
v 0.343631 0.041355 0.000000
v 0.368239 0.040453 0.000000
v 0.390580 0.037808 0.000000
v 0.410678 0.033511 0.000000
v 0.428557 0.027651 0.000000
v 0.444242 0.020319 0.000000
v 0.457756 0.011605 0.000000
v 0.469125 0.001599 0.000000
v 0.478372 -0.009608 0.000000
v 0.485522 -0.021926 0.000000
v 0.490599 -0.035266 0.000000
v 0.493627 -0.049535 0.000000
v 0.494631 -0.064645 0.000000
v 0.493955 -0.077484 0.000000
v 0.491802 -0.090354 0.000000
v 0.487990 -0.103036 0.000000
v 0.482335 -0.115312 0.000000
v 0.474651 -0.126963 0.000000
v 0.464756 -0.137770 0.000000
v 0.452465 -0.147515 0.000000
v 0.437594 -0.155979 0.000000
v 0.419959 -0.162942 0.000000
v 0.399376 -0.168187 0.000000
v 0.375662 -0.171494 0.000000
v 0.348631 -0.172645 0.000000
v 0.225631 -0.172645 0.000000
v 0.127631 -0.260645 0.062500
v 0.361631 -0.260645 0.062500
v 0.402157 -0.258668 0.062500
v 0.438339 -0.252997 0.062500
v 0.470334 -0.244020 0.062500
v 0.498298 -0.232127 0.062500
v 0.522386 -0.217705 0.062500
v 0.510256 0.158605 0.062500
v 0.399006 0.156480 0.062500
v 0.559563 -0.182835 0.062500
v 0.572964 -0.163164 0.062500
v 0.583115 -0.142520 0.062500
v 0.590173 -0.121293 0.062500
v 0.348631 -0.172645 0.062500
v 0.594293 -0.099872 0.062500
v 0.595631 -0.078645 0.062500
v 0.551881 0.037730 0.062500
v 0.390580 0.037808 0.062500
v 0.594352 -0.056179 0.062500
v 0.590566 -0.034835 0.062500
v 0.225631 -0.172645 0.062500
v 0.564931 0.021670 0.062500
v 0.519483 0.065207 0.062500
v 0.225631 0.041355 0.062500
v 0.536706 0.052269 0.062500
v 0.500287 0.076464 0.062500
v 0.479196 0.085961 0.062500
v 0.456285 0.093618 0.062500
v 0.431631 0.099355 0.062500
v 0.431631 0.101355 0.062500
v 0.448592 0.108964 0.062500
v 0.485522 -0.021926 0.062500
v 0.463988 0.117308 0.062500
v 0.477834 0.126417 0.062500
v 0.490150 0.136318 0.062500
v 0.500951 0.147038 0.062500
v 0.518082 0.171047 0.062500
v 0.575779 0.004170 0.062500
v 0.457756 0.011605 0.062500
v 0.524446 0.184392 0.062500
v 0.529365 0.198667 0.062500
v 0.542756 -0.201145 0.062500
v 0.532858 0.213901 0.062500
v 0.534941 0.230121 0.062500
v 0.535631 0.247355 0.062500
v 0.534306 0.268844 0.062500
v 0.530284 0.290105 0.062500
v 0.523490 0.310824 0.062500
v 0.452465 -0.147515 0.062500
v 0.513853 0.330688 0.062500
v 0.501299 0.349386 0.062500
v 0.485756 0.366605 0.062500
v 0.467150 0.382032 0.062500
v 0.445409 0.395355 0.062500
v 0.420459 0.406261 0.062500
v 0.493955 -0.077484 0.062500
v 0.392228 0.414438 0.062500
v 0.360643 0.419573 0.062500
v 0.410678 0.033511 0.062500
v 0.127631 0.421355 0.062500
v 0.225631 0.333355 0.062500
v 0.315631 0.333355 0.062500
v 0.336879 0.332460 0.062500
v 0.355696 0.329859 0.062500
v 0.372194 0.325683 0.062500
v 0.386483 0.320058 0.062500
v 0.493627 -0.049535 0.062500
v 0.398675 0.313115 0.062500
v 0.408881 0.304980 0.062500
v 0.417212 0.295782 0.062500
v 0.423779 0.285651 0.062500
v 0.428694 0.274714 0.062500
v 0.432066 0.263100 0.062500
v 0.434008 0.250937 0.062500
v 0.434631 0.238355 0.062500
v 0.433650 0.220875 0.062500
v 0.430700 0.204933 0.062500
v 0.425772 0.190527 0.062500
v 0.418853 0.177651 0.062500
v 0.409935 0.166303 0.062500
v 0.386056 0.148177 0.062500
v 0.371076 0.141392 0.062500
v 0.354053 0.136120 0.062500
v 0.334978 0.132359 0.062500
v 0.313841 0.130105 0.062500
v 0.290631 0.129355 0.062500
v 0.225631 0.129355 0.062500
v 0.343631 0.041355 0.062500
v 0.368239 0.040453 0.062500
v 0.428557 0.027651 0.062500
v 0.444242 0.020319 0.062500
v 0.469125 0.001599 0.062500
v 0.584350 -0.014692 0.062500
v 0.478372 -0.009608 0.062500
v 0.494631 -0.064645 0.062500
v 0.491802 -0.090354 0.062500
v 0.487990 -0.103036 0.062500
v 0.482335 -0.115312 0.062500
v 0.474651 -0.126963 0.062500
v 0.464756 -0.137770 0.062500
v 0.399376 -0.168187 0.062500
v 0.375662 -0.171494 0.062500
v 0.325631 0.421355 0.062500
v 0.490599 -0.035266 0.062500
v 0.437594 -0.155979 0.062500
v 0.419959 -0.162942 0.062500
vn -0.0000 -0.0000 -1.0000
vn -0.0000 -0.0000 1.0000
vn 0.7423 0.6701 -0.0000
vn -0.1381 0.9904 -0.0000
vn 0.4005 0.9163 -0.0000
vn 0.5225 0.8526 -0.0000
vn -0.4946 0.8691 -0.0000
vn 0.2782 0.9605 -0.0000
vn 0.1605 0.9870 -0.0000
vn 0.0508 0.9987 -0.0000
vn -1.0000 -0.0000 -0.0000
vn -0.0425 0.9991 -0.0000
vn -0.0000 -1.0000 -0.0000
vn -0.0421 -0.9991 -0.0000
vn -0.1369 -0.9906 -0.0000
vn -0.2454 -0.9694 -0.0000
vn -0.3663 -0.9305 -0.0000
vn -0.4949 -0.8690 -0.0000
vn -0.0000 1.0000 -0.0000
vn -0.6233 -0.7820 -0.0000
vn -0.7412 -0.6713 -0.0000
vn -0.8391 -0.5439 -0.0000
vn 0.8974 -0.4413 -0.0000
vn -0.9121 -0.4099 -0.0000
vn -0.9603 -0.2789 -0.0000
vn -0.9782 -0.2076 -0.0000
vn 1.0000 -0.0000 -0.0000
vn -0.9875 -0.1577 -0.0000
vn -0.9988 -0.0494 -0.0000
vn -0.9984 0.0560 -0.0000
vn -0.9833 0.1819 -0.0000
vn 0.9104 0.4137 -0.0000
vn 0.6308 -0.7759 -0.0000
vn -0.9462 0.3237 -0.0000
vn 0.3914 -0.9202 -0.0000
vn -0.8809 0.4733 -0.0000
vn -0.9863 0.1649 -0.0000
vn -0.7862 0.6179 -0.0000
vn 0.0487 -0.9988 -0.0000
vn -0.7375 0.6753 -0.0000
vn -0.6685 0.7437 -0.0000
vn 0.8264 -0.5630 -0.0000
vn 0.2701 -0.9628 -0.0000
vn -0.4126 0.9109 -0.0000
vn -0.5397 0.8418 -0.0000
vn 0.9489 -0.3155 -0.0000
vn 0.5137 -0.8580 -0.0000
vn 0.7367 -0.6762 -0.0000
vn -0.1934 0.9811 -0.0000
vn -0.2958 0.9552 -0.0000
vn 0.9980 -0.0629 -0.0000
vn -0.0323 0.9995 -0.0000
vn 0.9820 -0.1889 -0.0000
vn -0.1060 0.9944 -0.0000
vn 0.9846 0.1746 -0.0000
vn 0.9984 0.0568 -0.0000
vn 0.7761 0.6306 -0.0000
vn 0.9555 0.2949 -0.0000
vn -0.0366 -0.9993 -0.0000
vn 0.8499 0.5269 -0.0000
vn -0.2091 -0.9779 -0.0000
vn 0.6006 0.7995 -0.0000
vn 0.4106 0.9118 -0.0000
vn 0.6918 0.7221 -0.0000
vn -0.4235 -0.9059 -0.0000
vn -0.1176 -0.9931 -0.0000
vn 0.2266 0.9740 -0.0000
vn 0.5059 0.8626 -0.0000
vn -0.6607 -0.7507 -0.0000
vn 0.4093 -0.9124 -0.0000
vn 0.3170 0.9484 -0.0000
vn -0.3115 -0.9503 -0.0000
vn -0.8649 -0.5020 -0.0000
vn 0.5496 -0.8354 -0.0000
vn 0.4765 -0.8792 -0.0000
vn 0.7044 -0.7098 -0.0000
vn -0.3673 0.9301 -0.0000
vn 0.1549 -0.9879 -0.0000
vn 0.6266 -0.7794 -0.0000
vn -0.7713 -0.6364 -0.0000
vn 0.8465 -0.5324 -0.0000
vn 0.7792 -0.6268 -0.0000
vn -0.9986 0.0526 -0.0000
vn -0.5419 -0.8404 -0.0000
vn -0.9346 -0.3557 -0.0000
vn 0.9454 -0.3258 -0.0000
vn 0.9026 -0.4304 -0.0000
vn -0.9577 0.2879 -0.0000
vn -0.2469 0.9690 -0.0000
vn 0.9747 -0.2235 -0.0000
vn -0.9978 -0.0663 -0.0000
vn 0.9919 -0.1274 -0.0000
vn 0.9992 -0.0400 -0.0000
vn -0.8348 0.5505 -0.0000
vn 0.9981 0.0615 -0.0000
vn 0.9502 0.3116 -0.0000
vn 0.9826 0.1859 -0.0000
vn -0.6213 0.7836 -0.0000
vn -0.9082 0.4184 -0.0000
vn 0.8302 0.5574 -0.0000
vn 0.8997 0.4365 -0.0000
vn 0.6383 0.7698 -0.0000
vt 0.000000 0.000000
vt 0.485714 0.000000
vt 0.495238 0.000000
vt 0.476190 0.000000
vt 0.466667 0.000000
vt 0.457143 0.000000
vt 0.447619 0.000000
vt 0.438095 0.000000
vt 0.428571 0.000000
vt 0.419048 0.000000
vt 0.409524 0.000000
vt 0.504762 0.000000
vt 0.400000 0.000000
vt 0.742857 0.000000
vt 0.514286 0.000000
vt 0.523810 0.000000
vt 0.390476 0.000000
vt 0.533333 0.000000
vt 0.542857 0.000000
vt 0.552381 0.000000
vt 0.561905 0.000000
vt 0.380952 0.000000
vt 0.571429 0.000000
vt 0.580952 0.000000
vt 0.371429 0.000000
vt 0.590476 0.000000
vt 0.600000 0.000000
vt 0.361905 0.000000
vt 0.609524 0.000000
vt 0.619048 0.000000
vt 0.352381 0.000000
vt 0.628571 0.000000
vt 0.342857 0.000000
vt 0.638095 0.000000
vt 0.333333 0.000000
vt 0.647619 0.000000
vt 0.323810 0.000000
vt 0.657143 0.000000
vt 0.314286 0.000000
vt 0.666667 0.000000
vt 0.304762 0.000000
vt 0.676190 0.000000
vt 0.295238 0.000000
vt 0.685714 0.000000
vt 0.695238 0.000000
vt 0.285714 0.000000
vt 0.704762 0.000000
vt 0.276190 0.000000
vt 0.714286 0.000000
vt 0.723810 0.000000
vt 0.733333 0.000000
vt 0.752381 0.000000
vt 0.266667 0.000000
vt 0.257143 0.000000
vt 0.247619 0.000000
vt 0.238095 0.000000
vt 0.228571 0.000000
vt 0.219048 0.000000
vt 0.209524 0.000000
vt 0.200000 0.000000
vt 0.190476 0.000000
vt 0.761905 0.000000
vt 0.180952 0.000000
vt 1.000000 0.000000
vt 0.771429 0.000000
vt 0.780952 0.000000
vt 0.790476 0.000000
vt 0.171429 0.000000
vt 0.800000 0.000000
vt 0.809524 0.000000
vt 0.161905 0.000000
vt 0.819048 0.000000
vt 0.828571 0.000000
vt 0.152381 0.000000
vt 0.838095 0.000000
vt 0.847619 0.000000
vt 0.142857 0.000000
vt 0.857143 0.000000
vt 0.133333 0.000000
vt 0.866667 0.000000
vt 0.876190 0.000000
vt 0.123810 0.000000
vt 0.885714 0.000000
vt 0.895238 0.000000
vt 0.114286 0.000000
vt 0.904762 0.000000
vt 0.104762 0.000000
vt 0.914286 0.000000
vt 0.923810 0.000000
vt 0.095238 0.000000
vt 0.933333 0.000000
vt 0.942857 0.000000
vt 0.085714 0.000000
vt 0.952381 0.000000
vt 0.961905 0.000000
vt 0.971429 0.000000
vt 0.076190 0.000000
vt 0.980952 0.000000
vt 0.990476 0.000000
vt 0.066667 0.000000
vt 0.057143 0.000000
vt 0.047619 0.000000
vt 0.038095 0.000000
vt 0.028571 0.000000
vt 0.019048 0.000000
vt 0.009524 0.000000
s 0
usemtl Material.002
f 1/1/1 52/2/1 53/3/1
f 53/3/1 52/2/1 51/4/1
f 53/3/1 51/4/1 50/5/1
f 53/3/1 50/5/1 49/6/1
f 53/3/1 49/6/1 48/7/1
f 53/3/1 48/7/1 47/8/1
f 53/3/1 47/8/1 46/9/1
f 53/3/1 46/9/1 45/10/1
f 53/3/1 45/10/1 44/11/1
f 53/3/1 44/11/1 54/12/1
f 54/12/1 44/11/1 43/13/1
f 1/1/1 53/3/1 79/14/1
f 55/15/1 54/12/1 43/13/1
f 56/16/1 55/15/1 43/13/1
f 56/16/1 43/13/1 42/17/1
f 57/18/1 56/16/1 42/17/1
f 58/19/1 57/18/1 42/17/1
f 59/20/1 58/19/1 42/17/1
f 60/21/1 59/20/1 42/17/1
f 60/21/1 42/17/1 41/22/1
f 61/23/1 60/21/1 41/22/1
f 62/24/1 61/23/1 41/22/1
f 62/24/1 41/22/1 40/25/1
f 63/26/1 62/24/1 40/25/1
f 64/27/1 63/26/1 40/25/1
f 64/27/1 40/25/1 39/28/1
f 65/29/1 64/27/1 39/28/1
f 66/30/1 65/29/1 39/28/1
f 66/30/1 39/28/1 38/31/1
f 67/32/1 66/30/1 38/31/1
f 67/32/1 38/31/1 37/33/1
f 68/34/1 67/32/1 37/33/1
f 68/34/1 37/33/1 36/35/1
f 69/36/1 68/34/1 36/35/1
f 69/36/1 36/35/1 35/37/1
f 70/38/1 69/36/1 35/37/1
f 70/38/1 35/37/1 34/39/1
f 71/40/1 70/38/1 34/39/1
f 71/40/1 34/39/1 33/41/1
f 72/42/1 71/40/1 33/41/1
f 72/42/1 33/41/1 32/43/1
f 73/44/1 72/42/1 32/43/1
f 74/45/1 73/44/1 32/43/1
f 74/45/1 32/43/1 31/46/1
f 75/47/1 74/45/1 31/46/1
f 75/47/1 31/46/1 30/48/1
f 76/49/1 75/47/1 30/48/1
f 77/50/1 76/49/1 30/48/1
f 78/51/1 77/50/1 30/48/1
f 1/1/1 79/14/1 80/52/1
f 80/52/1 79/14/1 78/51/1
f 80/52/1 78/51/1 30/48/1
f 80/52/1 30/48/1 29/53/1
f 80/52/1 29/53/1 28/54/1
f 80/52/1 28/54/1 27/55/1
f 80/52/1 27/55/1 26/56/1
f 80/52/1 26/56/1 25/57/1
f 80/52/1 25/57/1 24/58/1
f 80/52/1 24/58/1 23/59/1
f 80/52/1 23/59/1 22/60/1
f 80/52/1 22/60/1 21/61/1
f 80/52/1 21/61/1 81/62/1
f 81/62/1 21/61/1 20/63/1
f 1/1/1 80/52/1 106/64/1
f 82/65/1 81/62/1 20/63/1
f 83/66/1 82/65/1 20/63/1
f 84/67/1 83/66/1 20/63/1
f 84/67/1 20/63/1 19/68/1
f 85/69/1 84/67/1 19/68/1
f 86/70/1 85/69/1 19/68/1
f 86/70/1 19/68/1 18/71/1
f 87/72/1 86/70/1 18/71/1
f 88/73/1 87/72/1 18/71/1
f 88/73/1 18/71/1 17/74/1
f 89/75/1 88/73/1 17/74/1
f 90/76/1 89/75/1 17/74/1
f 90/76/1 17/74/1 16/77/1
f 91/78/1 90/76/1 16/77/1
f 91/78/1 16/77/1 15/79/1
f 92/80/1 91/78/1 15/79/1
f 93/81/1 92/80/1 15/79/1
f 93/81/1 15/79/1 14/82/1
f 94/83/1 93/81/1 14/82/1
f 95/84/1 94/83/1 14/82/1
f 95/84/1 14/82/1 13/85/1
f 96/86/1 95/84/1 13/85/1
f 96/86/1 13/85/1 12/87/1
f 97/88/1 96/86/1 12/87/1
f 98/89/1 97/88/1 12/87/1
f 98/89/1 12/87/1 11/90/1
f 99/91/1 98/89/1 11/90/1
f 100/92/1 99/91/1 11/90/1
f 100/92/1 11/90/1 10/93/1
f 101/94/1 100/92/1 10/93/1
f 102/95/1 101/94/1 10/93/1
f 103/96/1 102/95/1 10/93/1
f 103/96/1 10/93/1 9/97/1
f 104/98/1 103/96/1 9/97/1
f 105/99/1 104/98/1 9/97/1
f 1/1/1 106/64/1 105/99/1
f 1/1/1 105/99/1 9/97/1
f 1/1/1 9/97/1 8/100/1
f 1/1/1 8/100/1 7/101/1
f 1/1/1 7/101/1 6/102/1
f 1/1/1 6/102/1 5/103/1
f 1/1/1 5/103/1 4/104/1
f 1/1/1 4/104/1 3/105/1
f 1/1/1 3/105/1 2/106/1
f 107/1/2 167/3/2 166/2/2
f 167/3/2 209/4/2 166/2/2
f 167/3/2 164/5/2 209/4/2
f 167/3/2 163/6/2 164/5/2
f 167/3/2 161/7/2 163/6/2
f 167/3/2 160/8/2 161/7/2
f 167/3/2 159/9/2 160/8/2
f 167/3/2 158/10/2 159/9/2
f 167/3/2 157/11/2 158/10/2
f 167/3/2 168/12/2 157/11/2
f 168/12/2 156/13/2 157/11/2
f 107/1/2 193/14/2 167/3/2
f 169/15/2 156/13/2 168/12/2
f 170/16/2 156/13/2 169/15/2
f 170/16/2 154/17/2 156/13/2
f 171/18/2 154/17/2 170/16/2
f 172/19/2 154/17/2 171/18/2
f 174/20/2 154/17/2 172/19/2
f 175/21/2 154/17/2 174/20/2
f 175/21/2 153/22/2 154/17/2
f 176/23/2 153/22/2 175/21/2
f 177/24/2 153/22/2 176/23/2
f 177/24/2 152/25/2 153/22/2
f 178/26/2 152/25/2 177/24/2
f 179/27/2 152/25/2 178/26/2
f 179/27/2 151/28/2 152/25/2
f 180/29/2 151/28/2 179/27/2
f 181/30/2 151/28/2 180/29/2
f 181/30/2 150/31/2 151/28/2
f 182/32/2 150/31/2 181/30/2
f 182/32/2 149/33/2 150/31/2
f 183/34/2 149/33/2 182/32/2
f 183/34/2 147/35/2 149/33/2
f 184/36/2 147/35/2 183/34/2
f 184/36/2 146/37/2 147/35/2
f 185/38/2 146/37/2 184/36/2
f 185/38/2 143/39/2 146/37/2
f 186/40/2 143/39/2 185/38/2
f 186/40/2 114/41/2 143/39/2
f 115/42/2 114/41/2 186/40/2
f 115/42/2 142/43/2 114/41/2
f 187/44/2 142/43/2 115/42/2
f 188/45/2 142/43/2 187/44/2
f 188/45/2 141/46/2 142/43/2
f 189/47/2 141/46/2 188/45/2
f 189/47/2 140/48/2 141/46/2
f 190/49/2 140/48/2 189/47/2
f 191/50/2 140/48/2 190/49/2
f 192/51/2 140/48/2 191/50/2
f 107/1/2 130/52/2 193/14/2
f 130/52/2 192/51/2 193/14/2
f 130/52/2 140/48/2 192/51/2
f 130/52/2 139/53/2 140/48/2
f 130/52/2 137/54/2 139/53/2
f 130/52/2 136/55/2 137/54/2
f 130/52/2 135/56/2 136/55/2
f 130/52/2 134/57/2 135/56/2
f 130/52/2 133/58/2 134/57/2
f 130/52/2 132/59/2 133/58/2
f 130/52/2 129/60/2 132/59/2
f 130/52/2 131/61/2 129/60/2
f 130/52/2 194/62/2 131/61/2
f 194/62/2 123/63/2 131/61/2
f 107/1/2 127/64/2 130/52/2
f 195/65/2 123/63/2 194/62/2
f 124/66/2 123/63/2 195/65/2
f 165/67/2 123/63/2 124/66/2
f 165/67/2 128/68/2 123/63/2
f 196/69/2 128/68/2 165/67/2
f 197/70/2 128/68/2 196/69/2
f 197/70/2 144/71/2 128/68/2
f 145/72/2 144/71/2 197/70/2
f 198/73/2 144/71/2 145/72/2
f 198/73/2 199/74/2 144/71/2
f 200/75/2 199/74/2 198/73/2
f 138/76/2 199/74/2 200/75/2
f 138/76/2 126/77/2 199/74/2
f 210/78/2 126/77/2 138/76/2
f 210/78/2 125/79/2 126/77/2
f 173/80/2 125/79/2 210/78/2
f 201/81/2 125/79/2 173/80/2
f 201/81/2 122/82/2 125/79/2
f 162/83/2 122/82/2 201/81/2
f 202/84/2 122/82/2 162/83/2
f 202/84/2 121/85/2 122/82/2
f 203/86/2 121/85/2 202/84/2
f 203/86/2 119/87/2 121/85/2
f 204/88/2 119/87/2 203/86/2
f 205/89/2 119/87/2 204/88/2
f 205/89/2 118/90/2 119/87/2
f 206/91/2 118/90/2 205/89/2
f 155/92/2 118/90/2 206/91/2
f 155/92/2 117/93/2 118/90/2
f 211/94/2 117/93/2 155/92/2
f 212/95/2 117/93/2 211/94/2
f 207/96/2 117/93/2 212/95/2
f 207/96/2 116/97/2 117/93/2
f 208/98/2 116/97/2 207/96/2
f 120/99/2 116/97/2 208/98/2
f 107/1/2 120/99/2 127/64/2
f 107/1/2 116/97/2 120/99/2
f 107/1/2 148/100/2 116/97/2
f 107/1/2 113/101/2 148/100/2
f 107/1/2 112/102/2 113/101/2
f 107/1/2 111/103/2 112/102/2
f 107/1/2 110/104/2 111/103/2
f 107/1/2 109/105/2 110/104/2
f 107/1/2 108/106/2 109/105/2
f 44/11/3 45/10/3 158/10/3 157/11/3
f 103/96/4 104/98/4 208/98/4 207/96/4
f 47/8/5 48/7/5 161/7/5 160/8/5
f 46/9/6 47/8/6 160/8/6 159/9/6
f 100/92/7 101/94/7 211/94/7 155/92/7
f 48/7/8 49/6/8 163/6/8 161/7/8
f 49/6/9 50/5/9 164/5/9 163/6/9
f 50/5/10 51/4/10 209/4/10 164/5/10
f 52/2/11 1/1/11 107/1/11 166/2/11
f 104/98/12 105/99/12 120/99/12 208/98/12
f 53/3/13 54/12/13 168/12/13 167/3/13
f 54/12/14 55/15/14 169/15/14 168/12/14
f 55/15/15 56/16/15 170/16/15 169/15/15
f 56/16/16 57/18/16 171/18/16 170/16/16
f 57/18/17 58/19/17 172/19/17 171/18/17
f 58/19/18 59/20/18 174/20/18 172/19/18
f 105/99/19 106/64/19 127/64/19 120/99/19
f 59/20/20 60/21/20 175/21/20 174/20/20
f 60/21/21 61/23/21 176/23/21 175/21/21
f 61/23/22 62/24/22 177/24/22 176/23/22
f 51/4/19 52/2/19 166/2/19 209/4/19
f 10/93/23 11/90/23 118/90/23 117/93/23
f 62/24/24 63/26/24 178/26/24 177/24/24
f 63/26/25 64/27/25 179/27/25 178/26/25
f 1/1/13 2/106/13 108/106/13 107/1/13
f 91/78/26 92/80/26 173/80/26 210/78/26
f 106/64/27 80/52/27 130/52/27 127/64/27
f 64/27/28 65/29/28 180/29/28 179/27/28
f 65/29/29 66/30/29 181/30/29 180/29/29
f 66/30/30 67/32/30 182/32/30 181/30/30
f 67/32/31 68/34/31 183/34/31 182/32/31
f 17/74/32 18/71/32 144/71/32 199/74/32
f 7/101/33 8/100/33 148/100/33 113/101/33
f 68/34/34 69/36/34 184/36/34 183/34/34
f 5/103/35 6/102/35 112/102/35 111/103/35
f 69/36/36 70/38/36 185/38/36 184/36/36
f 94/83/37 95/84/37 202/84/37 162/83/37
f 70/38/38 71/40/38 186/40/38 185/38/38
f 2/106/39 3/105/39 109/105/39 108/106/39
f 98/89/40 99/91/40 206/91/40 205/89/40
f 71/40/41 72/42/41 115/42/41 186/40/41
f 9/97/42 10/93/42 117/93/42 116/97/42
f 4/104/43 5/103/43 111/103/43 110/104/43
f 73/44/44 74/45/44 188/45/44 187/44/44
f 72/42/45 73/44/45 187/44/45 115/42/45
f 11/90/46 12/87/46 119/87/46 118/90/46
f 6/102/47 7/101/47 113/101/47 112/102/47
f 8/100/48 9/97/48 116/97/48 148/100/48
f 75/47/49 76/49/49 190/49/49 189/47/49
f 74/45/50 75/47/50 189/47/50 188/45/50
f 13/85/51 14/82/51 122/82/51 121/85/51
f 77/50/52 78/51/52 192/51/52 191/50/52
f 12/87/53 13/85/53 121/85/53 119/87/53
f 76/49/54 77/50/54 191/50/54 190/49/54
f 15/79/55 16/77/55 126/77/55 125/79/55
f 14/82/56 15/79/56 125/79/56 122/82/56
f 78/51/19 79/14/19 193/14/19 192/51/19
f 19/68/57 20/63/57 123/63/57 128/68/57
f 16/77/58 17/74/58 199/74/58 126/77/58
f 81/62/59 82/65/59 195/65/59 194/62/59
f 18/71/60 19/68/60 128/68/60 144/71/60
f 83/66/61 84/67/61 165/67/61 124/66/61
f 80/52/13 81/62/13 194/62/13 130/52/13
f 21/61/62 22/60/62 129/60/62 131/61/62
f 23/59/63 24/58/63 133/58/63 132/59/63
f 20/63/64 21/61/64 131/61/64 123/63/64
f 85/69/65 86/70/65 197/70/65 196/69/65
f 82/65/66 83/66/66 124/66/66 195/65/66
f 25/57/67 26/56/67 135/56/67 134/57/67
f 22/60/68 23/59/68 132/59/68 129/60/68
f 87/72/69 88/73/69 198/73/69 145/72/69
f 27/55/70 28/54/70 137/54/70 136/55/70
f 24/58/71 25/57/71 134/57/71 133/58/71
f 84/67/72 85/69/72 196/69/72 165/67/72
f 26/56/27 27/55/27 136/55/27 135/56/27
f 89/75/73 90/76/73 138/76/73 200/75/73
f 29/53/74 30/48/74 140/48/74 139/53/74
f 28/54/75 29/53/75 139/53/75 137/54/75
f 31/46/76 32/43/76 142/43/76 141/46/76
f 101/94/77 102/95/77 212/95/77 211/94/77
f 3/105/78 4/104/78 110/104/78 109/105/78
f 30/48/79 31/46/79 141/46/79 140/48/79
f 88/73/80 89/75/80 200/75/80 198/73/80
f 33/41/81 34/39/81 143/39/81 114/41/81
f 32/43/82 33/41/82 114/41/82 142/43/82
f 93/81/83 94/83/83 162/83/83 201/81/83
f 86/70/84 87/72/84 145/72/84 197/70/84
f 90/76/85 91/78/85 210/78/85 138/76/85
f 35/37/86 36/35/86 147/35/86 146/37/86
f 34/39/87 35/37/87 146/37/87 143/39/87
f 95/84/88 96/86/88 203/86/88 202/84/88
f 102/95/89 103/96/89 207/96/89 212/95/89
f 36/35/90 37/33/90 149/33/90 147/35/90
f 92/80/91 93/81/91 201/81/91 173/80/91
f 37/33/92 38/31/92 150/31/92 149/33/92
f 38/31/93 39/28/93 151/28/93 150/31/93
f 97/88/94 98/89/94 205/89/94 204/88/94
f 39/28/95 40/25/95 152/25/95 151/28/95
f 41/22/96 42/17/96 154/17/96 153/22/96
f 40/25/97 41/22/97 153/22/97 152/25/97
f 99/91/98 100/92/98 155/92/98 206/91/98
f 79/14/27 53/3/27 167/3/27 193/14/27
f 96/86/99 97/88/99 204/88/99 203/86/99
f 43/13/100 44/11/100 157/11/100 156/13/100
f 42/17/101 43/13/101 156/13/101 154/17/101
f 45/10/102 46/9/102 159/9/102 158/10/102
